<?xml version="1.0" encoding="utf-8"?>
<!-- Generator: Adobe Illustrator 22.0.0, SVG Export Plug-In . SVG Version: 6.00 Build 0)  -->
<svg version="1.1" id="Layer_1" xmlns="http://www.w3.org/2000/svg" xmlns:xlink="http://www.w3.org/1999/xlink" x="0px" y="0px"
	 viewBox="0 0 70.7 117.4" style="enable-background:new 0 0 70.7 117.4;" xml:space="preserve">
<style type="text/css">
	.st0{display:none;}
	.st1{display:inline;fill:none;stroke:#000000;stroke-width:2;stroke-miterlimit:10;}
	.st2{display:inline;fill:none;stroke:#000000;stroke-width:4;stroke-miterlimit:10;}
	.st3{display:inline;}
	.st4{display:inline;fill:none;stroke:#000000;stroke-width:3;stroke-miterlimit:10;}
	.st5{display:inline;fill:none;stroke:#000000;stroke-miterlimit:10;}
	.st6{display:inline;stroke:#000000;stroke-miterlimit:10;}
	.st7{display:inline;fill:none;stroke:#000000;stroke-width:8;stroke-miterlimit:10;}
	.st8{display:inline;stroke:#000000;stroke-width:4;stroke-miterlimit:10;}
	.st9{display:inline;stroke:#000000;stroke-width:8;stroke-miterlimit:10;}
</style>
<g id="Layer_2_1_">
	<path d="M9.5,4.4c0,0,6.1-2.2,19.6,24.4c0,0-4.2,3.4-3.9,8.2l-2.6-2.2c0,0,1.8-10.7-7.7-16.7c0,0-3.9-0.1-1.9,3.4
		c0,0,3.4,0.9,6.4,12.1c0,0-2,0,0,3.9l5.7,5h21.2l6-5.6c0,0,1.6-0.7,0-5.4c0,0,3.2-9.2,6-9.8c0,0,3.1-2.6-0.9-3.4
		c0,0-6.5,0.8-8.3,12c0,0-0.9,4.5-0.4,4.5l-2.3,2c0,0,0.1-5.8-4.5-8.5c0,0,12.4-22.1,14.9-21.6c0,0,3.9-3.7,6.6-2.5
		c0,0,3.2-2.4,0-3.8c0,0-7.2,0.4-12.4,8c0,0-8.8,9.9-11.5,18.9c0,0-4.4-1-6.6,0.1c0,0-10.1-21.2-17.8-24.6c0,0-6.3-4.7-7.7-1.5
		C7,1.4,6.5,3.5,9.5,4.4z"/>
	<path d="M24.8,46.9h8.8V100c0,0-7.7-2.5-10.5-20.5l-6.4,7.7l6.7,14c0,0,1.6,1.3,0,3.5L16.7,117c0,0-0.6,1.6-2.8,0
		c0,0-1.5-1.5,0-2.6l5.8-11.3L9.6,82.3c0,0-1.3-2.4,1-4.6l12.6-21.1v-3.8l-5.1,3.4c0,0-1.9,1-4.4-0.3c0,0-4.4-2.6-10.2-1.5
		c0,0-2.6,1-3.7-1.6c0,0,0.1-2.6,4.4-2.8c0,0,9-0.1,12.5,2.3L24.8,46.9z"/>
	<path d="M37.8,46.9v52.6c0,0,8.2-1.6,9.8-20.2l7,7.7l-7,14.6c0,0-1.2,2,0.3,2.9l6.7,12.4c0,0,2.9,2.8,3.4-1.5l-6.6-12.3l10.2-20.9
		c0,0,1.3-0.7,0-4.5l-13.8-21l0.3-3.8l4.5,2.8c0,0,2.3,2.3,4.4,0.1c0,0,6.9-2.6,10.8-1.5c0,0,3.8,1,3.1-2.2c0,0,0.9-3.1-8.3-1.9
		c0,0-7.9,1.3-8.1,2.3c0,0-4.1-3.8-8.5-5.7L37.8,46.9L37.8,46.9z"/>
</g>
<g id="Layer_4" class="st0">
	<path class="st1" d="M147.8,114.9"/>
	<path class="st1" d="M113.2,79.5c0,0,0.6-6.1,6.4,0c0,0,2.2,0.5,2,0s3.8-9.9,3.8-9.9s0.8-4.3,4.5-1.3c0,0-0.8-5.3,0-8.6
		c0.8-3.3,8.1-5.1,9.6-2.9c0,0,4.3-2.6,6.4-1c0,0,2.7,2.6,1.3,8.5c0,0-0.1-7.5,0.4-9.6c0,0,4.7,1,5,1.9c0,0,0.5,4.1,0,6.9l0.5-2.7
		c0,0-2.2-6.5,2.1-4.5c0,0,7.7,1.4,7.8,2.4c0,0-5.1,9.4-4.9,12c0,0-3.7,6.7-7.2,5.3c0,0-4.3-2.1-8.9-1.3c0,0-1.1,3.3-2.7,3.3
		c0,0-3.9,0.4-6.8-4.3c-0.6-1.1-1.2-2.4-1.7-4l-0.3,1.9l-2.9-1.3l-3.8,10c0,0,0.8,2.2-4.3,1.4L113.2,79.5z"/>
	<path class="st1" d="M134.6,72.3l-2.3,1.4L134.6,72.3z"/>
	<path class="st1" d="M134.6,68.4c0,0-1.1,5.8,6.6,7.5"/>
	<path class="st1" d="M135.4,64.3c0,0-0.3-8.9,4-3.1C139.4,61.2,140.7,72.2,135.4,64.3z"/>
	<path class="st1" d="M117,32.3c0,0,10.8,24.3,13.5,26.2c0,0,1.4-2,1.9-1.5c0,0-1.5-2.5,0-16.5"/>
	<path class="st1" d="M141.9,76.8c0,0,2.9,0.8-0.7,9.6c0,0-0.4,4.9-3.6,9.5c-0.1,0.1-0.1,0.2-0.2,0.3c-3.3,4.6-3.5,9.9-5.2,9.9
		c0,0,1.8-0.5,3.1,0.6c0,0,3.4-10.7,5.9-12.8c0,0,4-5.4,4.5-7.7c0,0,0.8-7.2,2.1-7.2c0,0,8.3,2.9,8.6,4.1c0,0,20.7,1.6,23.6,2.7
		v-2.2c0,0,9.2,12.8,10.5,13.1c1.3,0.3-1.3-0.3-1.3-0.3s10-0.6,10.4,0.6l0.8,1l1.8,0.3l-4.1-3.5l-6.4,0.5l-11.2-13.2
		c0,0-2.2-0.7-12.3-1.4c0,0-4.6,0-4.6-4.6c0,0,2.2-4-0.8-7.5"/>
	<path class="st1" d="M158.4,57.1l1.9-0.5l2.5-0.6c0,0,8.8-14,14.8-21c0,0,3.2-15,8-8.5c0,0,1.6,6.1,0,5.7c0,0-3.3,0.3-5.6,4.1
		c0,0-7.7,18.7-9.4,19.8h-6.9l21-0.3l-1.1-21.5"/>
	<polyline class="st1" points="186.3,33.2 188.3,55.6 182,55.9 	"/>
	<path class="st1" d="M222,85.1c0,0-2.6-4.6-6.4,1.1h-7.7c0,0-2.7,0.1-1.4-2.9c0,0,4.1-15.9,2.6-35.7c0,0-5.7-0.2-6.9,3.8
		c0,0-4.9-0.5-8.1,10.8c0,0-10.7,16.4-19,17.2c0,0-5.6-2.4,0-8.1c0,0,13.7-18.7,20.4-20.4c0,0,0.5-1.9,5.6-5.6c0,0,4.6-7.5,7.8-6.2
		c0,0,3.5,2.4,3,6.2c0,0,1,10.9,0.3,10.5s0,14.5-1,16.3l-2.1,9.9c0,0-0.2,2.2,3.2,2.2C212.4,84.3,223.6,79.7,222,85.1z"/>
	<line class="st1" x1="197.4" y1="55.9" x2="209.4" y2="55.4"/>
	<path class="st1" d="M212.5,54.8c0,0,18.3-0.6,21.6,1.2c0,0,3.5,0.8,1.3,5.1c0,0-2.9,5.7-20.9,8.6h-2.8"/>
	<path class="st1" d="M208.8,69.6c0,0-13.7-2.3-17-4.1"/>
	<path class="st1" d="M188.5,69.6c0,0,17,2.7,20,1.8"/>
	<path class="st1" d="M178.6,78.4c0,0,19.4,0.1,29-4.6"/>
	<path class="st1" d="M159.5,65.5c0,0,19.1,1.3,18.5,2.1c-0.6,0.7,2.6-3.2,2.6-3.2s-17.5-2.2-19.9-1.4"/>
</g>
<g id="Layer_3" class="st0">
	<path class="st2" d="M286-5.8c0,0,16.1-5,25,33.7c0,0-8.8,9.4-1.7,17l-3.8,11.5l-8.6-1.6L278.4,22h-3.2"/>
	<polyline class="st2" points="354.7,22 350.3,22 332.6,55.5 322.7,57.1 	"/>
	<polyline class="st2" points="355.4,112.1 351.7,112.1 337,69.7 324.3,62.6 	"/>
	<path class="st2" d="M320,45.1c0,0,2.7,8.8,4,20.9c1.1,9.6,1.3,21.2-1.2,32.1c0,0,0,2.1-0.3,5.1c-0.6,6.5-2.5,17-8.2,18.5
		c0,0-12.5-13.3-8.2-38.3c0.2-0.9-3.4-24.1,2.7-37c1.2-2.5,5,0.8,6.8,1c3,0.4,4.6-2.3,6.4-3.9c2.8-2.5-0.4-10.3-0.4-10.3"/>
	<path class="st2" d="M322.7,99.1c0,0,3.3,13.1,8.8,12.9c0,0,7.6-18.6-7.6-46.1"/>
	<path class="st2" d="M272.4,112.1h3.8l14.9-42.5l14.5-8.1c0,0-11.1,28.2-10,40c0,0-1.2,9.9,2.4,10.6c0,0,7.2-4.3,7.6-11.2"/>
	<path class="st3" d="M308.8,30.9c0,0,6.8,4.4-1.4,3"/>
	<path class="st3" d="M320.9,30.9c0,0-8,4.9,1.9,3.3"/>
	<path class="st3" d="M312.6,59.1c0,0,3.7-2.3,5.2,0c0,0,1.3,2.7-3.5,2.3C314.2,61.4,311.6,62.8,312.6,59.1z"/>
	<path class="st3" d="M312.6,72.6c0,0,3.7-2.3,5.2,0c0,0,1.3,2.7-3.5,2.3C314.2,74.9,311.6,76.3,312.6,72.6z"/>
	<path class="st3" d="M312.6,85.9c0,0,3.7-2.3,5.2,0c0,0,1.3,2.7-3.5,2.3C314.2,88.3,311.6,89.7,312.6,85.9z"/>
	<path class="st3" d="M312.6,99.3c0,0,3.7-2.3,5.2,0c0,0,1.3,2.7-3.5,2.3C314.2,101.6,311.6,103,312.6,99.3z"/>
	<path class="st3" d="M318.5,25.3"/>
	<path class="st2" d="M311,27.9c0,0,4.8-4.9,9.3,1.7"/>
	<path class="st2" d="M317.4,26.8c0,0,13.2-39.9,26.9-32"/>
	<path class="st2" d="M322.1,34.5c0,0-0.9-5.7-3.6-7"/>
</g>
<g id="Layer_6" class="st0">
	<path class="st4" d="M458.5,108c0,0,5.8-13.5-21.7-26.8"/>
	<path class="st4" d="M417.6,47.3c0,0-1.5-14.9,17.1-16.8c1.3-0.1,2.7-0.2,4.2-0.2c0,0-6.3,5.8-5,8.5"/>
	<path class="st4" d="M508.2,37.6c0,0-12.6-19.8-25.6-20.5c0,0-3.1-9.3-9.9-13.8c0,0,7.9,8.9,1.8,13.1c0,0-9.4-11.5-26.5-7.6
		c0,0,20.5,0,15,8.1c0,0-20.9,6.5-31,14"/>
	<path class="st4" d="M525.5,43.5c0,0-15.2,0.8-14.4,3.8c0,0,2.9,14.9,11.3,9.1c0,0,4.9-5.7,3.4-11.7c-0.3-1.2-0.9-2.5-1.9-3.7
		c0,0-2.4-11-21.2-10.7"/>
	<path class="st4" d="M427.3,61.4l-1.5-2.1c-7.3-3.4-9.4-9.2-9.4-9.2c2.6-10.2,14.4-3.1,14.4-3.1c-1.8,4.3-2.7,8.1-3.2,11.5
		c-1.4,10.2,1.9,16.2,1.9,16.2c21.7,16.2,17.8,33.2,17.8,33.2"/>
	<path class="st4" d="M495.4,108c0,0,2.1-19.4,4.7-22.8c0,0,13.9-0.8,16.5-27.5"/>
	<path class="st4" d="M485.7,108c0,0,0.5-12.8,2.4-15.2c0,0,8.6-3.4,12-7.6"/>
	<path class="st4" d="M451.6,90.8c0,0,18.7,12.1,36.5,2"/>
	<path class="st4" d="M454.1,69.8c0,0-2.9,17.3,19.1,13.1c0,0,16.5,3.4,14.9-12"/>
	<path class="st4" d="M463.7,68.2c0,0,8.6-3.7,13.6,0c0,0,1.8,7-6.3,8.1C471.1,76.3,462.4,74.3,463.7,68.2z"/>
	<path class="st4" d="M446.5,29c0,0,8.3,1.9,14,6.9c1,0.9,1.9,1.8,2.7,2.9c2.8,3.8,3.8,8.9,0.5,15.6c0,0,0.3,3.6-3.1,5.3
		c-2,1-5.3,1.4-10.7-0.1c0,0-9.4-6-3.4-20.8c0,0,8.2-4.9,15.9-1.1"/>
	<path class="st4" d="M458.5,60.7c0,0-14-18.7,7.1-15.9"/>
	<path class="st4" d="M495.4,29c0,0-4.7,1.3-9.3,4.3c-6.7,4.4-13,12.2-3.8,24.5c0,0,12,7.2,13.1-5.2c0,0,7.8-23.3-15.9-14.9"/>
	<path class="st4" d="M477.5,44.8c0,0,15.5-5,10.6,15"/>
</g>
<g id="Layer_8" class="st0">
	<path class="st2" d="M7.2,237.6c0,0-29.1-5.4-12.5-59.6c1.6,0.6,1.7-13,14.6-19.6c6.9-3.6,9.8-8.5,20.3-8.8c12.4-0.4,33-1.1,40.5,2
		c0,0,17,5.1,24.4,26.7c0,0,10.8,40.6-2.4,51.4c0,0-11.2,11.5-32.1,11.8C60,241.7,17.1,243.7,7.2,237.6z"/>
	<path class="st5" d="M19.1,151.7"/>
	<path class="st5" d="M-8.9,177.5"/>
	<path class="st5" d="M94.5,178.4c-3.4-18.1-24.4-26.7-24.4-26.7"/>
	<path class="st3" d="M-5.3,178.1c0,0,0.7-8.3,6.5-13c7.8-6.3,16.1-14,17.8-13.4c0,0-10.8-19.7-25.4-2.4c0,0-13,15.3-2.6,25.9
		C-7.9,176.2-6.7,177.2-5.3,178.1"/>
	<path class="st3" d="M68.4,151.1c0,0,13.3-17.3,23.5-5.2c0,0,14.2,11.8,10.2,22c0,0-4.7,10.8-8.1,7.8S79.7,152.6,68.4,151.1z"/>
	<path class="st3" d="M6.6,201.4c0,0,10.5-20,16.9-18.6c0,0,13.5,0.9,10.5,9.3c0,0-7.3,24.2-13.5,24.9c0,0-9.9,4.1-13.9-4.7
		C6.6,212.3,3.5,201.8,6.6,201.4z"/>
	<path class="st3" d="M57.7,185.5c0,0,5.9-6.6,10.7-2.8c0,0,14.9,11.2,14,20c0,0,2.1,13.4-7.1,15.1c0,0-7.1,2.8-13.2-8.7
		C62.1,209.2,50.6,186.5,57.7,185.5z"/>
	<path class="st3" d="M37.4,220c0,0-0.6-5.4,6.8-4.1c0,0,8.4-0.7,9.1,4.1c0,0-8.5,1.7-8,3.4C45.3,223.4,39.7,218.7,37.4,220z"/>
</g>
<g id="Layer_9" class="st0">
	<path class="st2" d="M132.5,151.8c0,0,34.9,26.4,59.5,23c0,0,21,2,29.2-31.2c0,0,9-32,33-12.3c0,0,4.7,10.3,6.5,11.5
		c0,0,6.3,10.3,3.8,10.7c0,0-12.5-8.3-16.7,2.7c0,0-1,16.8,4.2,35.5c0,0,0,24.7-18.5,33.7c0,0-27.4,22.5-56.7,2
		c0,0-26.9-13-32.7-28.4c0,0-5-5.5-6.2-5s8.3-5.2,9.5-3c0,0-5.3-4.7-11.3-5c0,0,5.7-10.3,16.5-6.7
		C152.6,179.3,128.3,162,132.5,151.8z"/>
	<path class="st2" d="M217.7,192.8c0,0-0.4,44.8-46.4,31.6"/>
	<path class="st2" d="M229.2,129.6c0,0-14-18.8,6-12.5c0,0,3.8-15.3,12-1.3c0,0,17.5-0.2,4.3,13.4"/>
	<path class="st3" d="M239.7,140.3c0,0,0.8-9.8,8.2-2.5C247.9,137.8,247.9,150.3,239.7,140.3z"/>
	<path class="st6" d="M202.3,236v9.3c0,0-11.5,6.9-10.5,8.9c0,0,10.9-7.8,12.5-5.4c0,0,12.3,3.1,11.8,6.9c0,0,8.1-4.8-1.9-6.8
		c-0.6-0.1-11.8-3.8-13.8-3.1"/>
</g>
<g id="Layer_10" class="st0">
	<path class="st2" d="M303.6,186.9c0,0-8.2-15.7,21.4-28.1c0,0,21.5-2.1,22.5,14c0,0,0.4,20.4-21.2,19.9c0,0-2.1,0.6-5.1,0.9
		C315.8,194.2,307.4,193.7,303.6,186.9z"/>
	<path class="st2" d="M315.8,194.2c0,0,4.6-5.5,6.7,11.3c0,0,6.3,7.2,5.1,11.1c0,0-6.5,18.3-8,19.1c-1.5,0.8,1.5-0.8,1.5-0.8
		s-16.7,4.3-14.3,9.3c0,0,1.9,3.6,18.3,1.8l22.4-32.2c0,0,0.2-5.9,15.1-8.5c0,0-27.4,4.6-15.1,21.6c0,0,11,8.2,16.8,7.5
		c0,0-33.2,1-33.3,6.2c0,0-6.5,8.7,15.1,5.9l44.3-0.5c0,0,5.6,1.8,3.8-8c0,0-3.4-4.6-0.3-8.2c0.7-0.9,1.8-1.7,3.4-2.3
		c0,0,3.6-4.1,5-10.4c1.4-6.3,0.5-14.6-8.3-23.1c0,0-5.4-13.1-26-12.3s-1.7,0-1.7,0s-10,3.7-19-6.9"/>
	<path class="st7" d="M392.7,233.8c0,0,16.3,4.5,18.3-0.4s6.3-14.4-8.7-16.4"/>
	<path class="st2" d="M334.8,158.8c0,0,27-25.7,35.8-19c0,0,5.9,4.1-3.1,9l-24.4,14.6c0,0,28-20.9,37.3-12.4c0,0,9.8,6-33.3,18.9"/>
	<path class="st8" d="M317.1,178.2c0,0,2.9-5.7,6.2,0C323.3,178.2,320.7,186.7,317.1,178.2z"/>
</g>
<g id="Layer_12" class="st0">
	<path class="st7" d="M473.8,158.8c-0.6,0.3-14.8,21-20.1,43.6c-2.9,12.6-3.1,25.8,3.5,36.3c0,0,6.2,10.4,45.7,8.8
		c0,0,34.5-3.9,32.7-29.8c0,0-10-58.4-32.7-62.8C502.8,154.9,492,148.6,473.8,158.8z"/>
	<path class="st7" d="M473.8,161.1c0,0-5.1-12.5-20.1,1.6c0,0-35.4,37.9,0,37.9"/>
	<path class="st7" d="M512,160c0,0,16.9-12.6,32.5,20.4c0,0,13,18.6-12.6,21.8"/>
	<path class="st7" d="M490.7,247.7v-19.4c0,0-17.8-11.4-6.3-17.9c0,0,19.6-2.9,19.8,1.8c0,0,0.9,11.7-10.5,15.3v20.1"/>
	<path class="st9" d="M478.3,192.8c0,0-0.7-7,5.5-2.9C483.9,189.9,484.2,199,478.3,192.8z"/>
	<path class="st9" d="M501.3,193.3c0,0,1.7-7.5,7-2.9C508.2,190.4,509.8,199,501.3,193.3z"/>
</g>
<g id="Layer_13" class="st0">
	<path class="st4" d="M31.7,387.6c0,0-8.4-7.5-3.7-7.1c4.7,0.4-6,3.2-8.8,0c-2.9-3.2-8.2-7.5-6.4-11.8c0,0-10.7,1.4-9.6-15.3
		c0,0-9.3-7.8-2.5-17.5c0,0-7.1-12.5,3.9-18.5c0,0-3.9-10,8.2-15c0,0,1.2-14.3,15.2-12.5c0,0,1.5-10.3,15.1-6.1c0,0,10.7-3.6,18.6-1
		c2.1,0.7,14.5-3.2,16,8.5c0,0,14.5-1.8,14.7,10.7c0,0,13.5,3.9,9.9,17.5c0,0,11.4,3.6,2.5,17.5c0,0,9.6,10.3-3.2,16.8
		c0,0,4.5,15.7-9.7,15.3c0,0,0.8,14.6-12.4,11.8c0,0-3.2,7.8-5.3,6.8L73,402c0,0-5.4,6.4-11.2-1.8V387c0,0-7.6,8.2-16.7-0.4v14.3
		c0,0-4.8,4.4-7.6,3.5c0,0-6.8-0.6-5.7-7v-9.8H31.7z"/>
	<path class="st4" d="M19.6,345.5c0,0,11.2-1.4,13.6-8.2c0,0,10.2,1.1,11.8-5c0,0,8.4,6.4,15.2,0c0,0,0.3,6.1,10.5,5
		c0,0,9.5,8.9,14.5,8.2c0,0,2.7,7.5-8.5,5c0,0-6.2-3.2-6.2-5s0,1.8,0,1.8s6.2,21.8-14,29.6c0,0-15.7,3.6-23.3-19.6v-11.4
		C33.2,345.8,25.3,358.3,19.6,345.5z"/>
	<path class="st4" d="M37.8,347.3c0,0,5,6.8,9.3,0"/>
	<path class="st4" d="M56.6,347.3c0,0,7.1,7.1,9.2,0"/>
	<path class="st4" d="M50.3,371.5c0,0,3.2-3.2,4.5,0C56,374.7,52.4,374,50.3,371.5z"/>
</g>
<g id="Layer_14" class="st0">
	<path class="st4" d="M240.6,338.8c-0.7,11.3,3.9,16.2,3.9,16.2c7.8,3.7,3.9,30.1,3.9,30.1h6.5l0.7-30.4l4.9-7.6
		c6.6-6.3,4.4-22.6,4.4-22.6c0.7-10.7-12.7-15.8-12.7-15.8c-4.6-5.1-18.9,1.9-18.9,1.9c-11.6,2.5-28.6-4.6-28.6-4.6
		c-4.6-5.4-9.6-1.5-9.6-1.5c8.5-1.7,6.1-11.7,6.1-11.7c-0.6-1.4-10.4,6.1-10.4,6.1l2-2.4c-5.1-5.1-12.4,1.7-12.4,1.7l-14.9,16.1
		c0,0,0.7,7.3,8.7,7.3c0,0,10.5-4.6,13.4,1.4c0,0,9.2,16.3,10.2,27c0,0,0.2,7.3,11.2,7.1c0,0-8-10-5.6-11.7"/>
	<path class="st4" d="M219.4,346.2c0,0-0.2,1.4-0.5,3.7c-0.2,1.3-0.3,2.8-0.5,4.6c-0.1,0.6-0.1,1.2-0.2,1.8
		c-1.3,10.9-2.9,27.1-2,28.8h-6.5c0,0,3.2-26.2-0.7-28"/>
	<path class="st4" d="M240.6,339.7"/>
	<path class="st4" d="M218.4,354.4c0,0,16.6-5.7,26.1,0.6"/>
	<path class="st4" d="M198,313.7c0,0-8.8,10.9-15.8,6.1"/>
	<path class="st4" d="M263.2,317.4c0,0,11.9,3,8.9,18.4l0.5,14.1c0,0-6.1,1-2.5,8.2l3.4,7.6c0,0,4.4-6.2,3.7-10.6
		c0,0,0.2-4.2-3.7-5.3"/>
	<path class="st3" d="M180.6,308.1c0,0,1-3.6,3.4-0.8C186.4,310,181,312,180.6,308.1z"/>
</g>
</svg>
