<?xml version="1.0" encoding="utf-8"?>
<!-- Generator: Adobe Illustrator 22.0.0, SVG Export Plug-In . SVG Version: 6.00 Build 0)  -->
<svg version="1.1" xmlns="http://www.w3.org/2000/svg" xmlns:xlink="http://www.w3.org/1999/xlink" x="0px" y="0px"
	 viewBox="0 0 612 792" style="enable-background:new 0 0 612 792;" xml:space="preserve">
<style type="text/css">
	.st0{display:none;}
	.st1{display:inline;fill:none;stroke:#000000;stroke-width:2;stroke-miterlimit:10;}
	.st2{display:inline;fill:none;stroke:#000000;stroke-width:4;stroke-miterlimit:10;}
	.st3{display:inline;}
	.st4{display:inline;fill:none;stroke:#000000;stroke-width:3;stroke-miterlimit:10;}
	.st5{display:inline;fill:none;stroke:#000000;stroke-miterlimit:10;}
	.st6{display:inline;stroke:#000000;stroke-miterlimit:10;}
	.st7{display:inline;fill:none;stroke:#000000;stroke-width:8;stroke-miterlimit:10;}
	.st8{display:inline;stroke:#000000;stroke-width:4;stroke-miterlimit:10;}
	.st9{display:inline;stroke:#000000;stroke-width:8;stroke-miterlimit:10;}
</style>
<g id="Layer_2">
	<path d="M55.2,35.4c0,0,6.1-2.2,19.6,24.4c0,0-4.2,3.4-3.9,8.2l-2.6-2.2c0,0,1.8-10.7-7.7-16.7c0,0-3.9-0.1-1.9,3.4
		c0,0,3.4,0.9,6.4,12.1c0,0-2,0,0,3.9l5.7,5h21.2l6-5.6c0,0,1.6-0.7,0-5.4c0,0,3.2-9.2,6-9.8c0,0,3.1-2.6-0.9-3.4
		c0,0-6.5,0.8-8.3,12c0,0-0.9,4.5-0.4,4.5l-2.3,2c0,0,0.1-5.8-4.5-8.5c0,0,12.4-22.1,14.9-21.6c0,0,3.9-3.7,6.6-2.5
		c0,0,3.2-2.4,0-3.8c0,0-7.2,0.4-12.4,8c0,0-8.8,9.9-11.5,18.9c0,0-4.4-1-6.6,0.1c0,0-10.1-21.2-17.8-24.6c0,0-6.3-4.7-7.7-1.5
		C52.7,32.4,52.2,34.5,55.2,35.4z"/>
	<path d="M70.5,77.9h8.8V131c0,0-7.7-2.5-10.5-20.5l-6.4,7.7l6.7,14c0,0,1.6,1.3,0,3.5l-6.7,12.3c0,0-0.6,1.6-2.8,0
		c0,0-1.5-1.5,0-2.6l5.8-11.3l-10.1-20.8c0,0-1.3-2.4,1-4.6l12.6-21.1v-3.8l-5.1,3.4c0,0-1.9,1-4.4-0.3c0,0-4.4-2.6-10.2-1.5
		c0,0-2.6,1-3.7-1.6c0,0,0.1-2.6,4.4-2.8c0,0,9-0.1,12.5,2.3L70.5,77.9z"/>
	<path d="M83.5,77.9v52.6c0,0,8.2-1.6,9.8-20.2l7,7.7l-7,14.6c0,0-1.2,2,0.3,2.9l6.7,12.4c0,0,2.9,2.8,3.4-1.5l-6.6-12.3l10.2-20.9
		c0,0,1.3-0.7,0-4.5L93.5,87.7l0.3-3.8l4.5,2.8c0,0,2.3,2.3,4.4,0.1c0,0,6.9-2.6,10.8-1.5c0,0,3.8,1,3.1-2.2c0,0,0.9-3.1-8.3-1.9
		c0,0-7.9,1.3-8.1,2.3c0,0-4.1-3.8-8.5-5.7H83.5z"/>
</g>
<g id="Layer_4" class="st0">
	<path class="st1" d="M193.5,145.9"/>
	<path class="st1" d="M158.9,110.5c0,0,0.6-6.1,6.4,0c0,0,2.2,0.5,2,0c-0.2-0.5,3.8-9.9,3.8-9.9s0.8-4.3,4.5-1.3c0,0-0.8-5.3,0-8.6
		c0.8-3.3,8.1-5.1,9.6-2.9c0,0,4.3-2.6,6.4-1c0,0,2.7,2.6,1.3,8.5c0,0-0.1-7.5,0.4-9.6c0,0,4.7,1,5,1.9c0,0,0.5,4.1,0,6.9l0.5-2.7
		c0,0-2.2-6.5,2.1-4.5c0,0,7.7,1.4,7.8,2.4c0,0-5.1,9.4-4.9,12c0,0-3.7,6.7-7.2,5.3c0,0-4.3-2.1-8.9-1.3c0,0-1.1,3.3-2.7,3.3
		c0,0-3.9,0.4-6.8-4.3c-0.6-1.1-1.2-2.4-1.7-4l-0.3,1.9l-2.9-1.3l-3.8,10c0,0,0.8,2.2-4.3,1.4L158.9,110.5z"/>
	<path class="st1" d="M180.3,103.3l-2.3,1.4L180.3,103.3z"/>
	<path class="st1" d="M180.3,99.4c0,0-1.1,5.8,6.6,7.5"/>
	<path class="st1" d="M181.1,95.3c0,0-0.3-8.9,4-3.1C185.1,92.2,186.4,103.2,181.1,95.3z"/>
	<path class="st1" d="M162.7,63.3c0,0,10.8,24.3,13.5,26.2c0,0,1.4-2,1.9-1.5c0,0-1.5-2.5,0-16.5"/>
	<path class="st1" d="M187.6,107.8c0,0,2.9,0.8-0.7,9.6c0,0-0.4,4.9-3.6,9.5c-0.1,0.1-0.1,0.2-0.2,0.3c-3.3,4.6-3.5,9.9-5.2,9.9
		c0,0,1.8-0.5,3.1,0.6c0,0,3.4-10.7,5.9-12.8c0,0,4-5.4,4.5-7.7c0,0,0.8-7.2,2.1-7.2c0,0,8.3,2.9,8.6,4.1c0,0,20.7,1.6,23.6,2.7
		v-2.2c0,0,9.2,12.8,10.5,13.1s-1.3-0.3-1.3-0.3s10-0.6,10.4,0.6l0.8,1l1.8,0.3l-4.1-3.5l-6.4,0.5l-11.2-13.2c0,0-2.2-0.7-12.3-1.4
		c0,0-4.6,0-4.6-4.6c0,0,2.2-4-0.8-7.5"/>
	<path class="st1" d="M204.1,88.1l1.9-0.5l2.5-0.6c0,0,8.8-14,14.8-21c0,0,3.2-15,8-8.5c0,0,1.6,6.1,0,5.7c0,0-3.3,0.3-5.6,4.1
		c0,0-7.7,18.7-9.4,19.8h-6.9l21-0.3l-1.1-21.5"/>
	<polyline class="st1" points="232,64.2 234,86.6 227.7,86.9 	"/>
	<path class="st1" d="M267.7,116.1c0,0-2.6-4.6-6.4,1.1h-7.7c0,0-2.7,0.1-1.4-2.9c0,0,4.1-15.9,2.6-35.7c0,0-5.7-0.2-6.9,3.8
		c0,0-4.9-0.5-8.1,10.8c0,0-10.7,16.4-19,17.2c0,0-5.6-2.4,0-8.1c0,0,13.7-18.7,20.4-20.4c0,0,0.5-1.9,5.6-5.6c0,0,4.6-7.5,7.8-6.2
		c0,0,3.5,2.4,3,6.2c0,0,1,10.9,0.3,10.5s0,14.5-1,16.3l-2.1,9.9c0,0-0.2,2.2,3.2,2.2C258.1,115.3,269.3,110.7,267.7,116.1z"/>
	<line class="st1" x1="243.1" y1="86.9" x2="255.1" y2="86.4"/>
	<path class="st1" d="M258.2,85.8c0,0,18.3-0.6,21.6,1.2c0,0,3.5,0.8,1.3,5.1c0,0-2.9,5.7-20.9,8.6h-2.8"/>
	<path class="st1" d="M254.5,100.6c0,0-13.7-2.3-17-4.1"/>
	<path class="st1" d="M234.2,100.6c0,0,17,2.7,20,1.8"/>
	<path class="st1" d="M224.3,109.4c0,0,19.4,0.1,29-4.6"/>
	<path class="st1" d="M205.2,96.5c0,0,19.1,1.3,18.5,2.1c-0.6,0.7,2.6-3.2,2.6-3.2s-17.5-2.2-19.9-1.4"/>
</g>
<g id="Layer_3" class="st0">
	<path class="st2" d="M331.7,25.2c0,0,16.1-5,25,33.7c0,0-8.8,9.4-1.7,17l-3.8,11.5l-8.6-1.6L324.1,53h-3.2"/>
	<polyline class="st2" points="400.4,53 396,53 378.3,86.5 368.4,88.1 	"/>
	<polyline class="st2" points="401.1,143.1 397.4,143.1 382.7,100.7 370,93.6 	"/>
	<path class="st2" d="M365.7,76.1c0,0,2.7,8.8,4,20.9c1.1,9.6,1.3,21.2-1.2,32.1c0,0,0,2.1-0.3,5.1c-0.6,6.5-2.5,17-8.2,18.5
		c0,0-12.5-13.3-8.2-38.3c0.2-0.9-3.4-24.1,2.7-37c1.2-2.5,5,0.8,6.8,1c3,0.4,4.6-2.3,6.4-3.9c2.8-2.5-0.4-10.3-0.4-10.3"/>
	<path class="st2" d="M368.4,130.1c0,0,3.3,13.1,8.8,12.9c0,0,7.6-18.6-7.6-46.1"/>
	<path class="st2" d="M318.1,143.1h3.8l14.9-42.5l14.5-8.1c0,0-11.1,28.2-10,40c0,0-1.2,9.9,2.4,10.6c0,0,7.2-4.3,7.6-11.2"/>
	<path class="st3" d="M354.5,61.9c0,0,6.8,4.4-1.4,3"/>
	<path class="st3" d="M366.6,61.9c0,0-8,4.9,1.9,3.3"/>
	<path class="st3" d="M358.3,90.1c0,0,3.7-2.3,5.2,0c0,0,1.3,2.7-3.5,2.3C359.9,92.4,357.3,93.8,358.3,90.1z"/>
	<path class="st3" d="M358.3,103.6c0,0,3.7-2.3,5.2,0c0,0,1.3,2.7-3.5,2.3C359.9,105.9,357.3,107.3,358.3,103.6z"/>
	<path class="st3" d="M358.3,116.9c0,0,3.7-2.3,5.2,0c0,0,1.3,2.7-3.5,2.3C359.9,119.3,357.3,120.7,358.3,116.9z"/>
	<path class="st3" d="M358.3,130.3c0,0,3.7-2.3,5.2,0c0,0,1.3,2.7-3.5,2.3C359.9,132.6,357.3,134,358.3,130.3z"/>
	<path class="st3" d="M364.2,56.3"/>
	<path class="st2" d="M356.7,58.9c0,0,4.8-4.9,9.3,1.7"/>
	<path class="st2" d="M363.1,57.8c0,0,13.2-39.9,26.9-32"/>
	<path class="st2" d="M367.8,65.5c0,0-0.9-5.7-3.6-7"/>
</g>
<g id="Layer_6" class="st0">
	<path class="st4" d="M504.2,139c0,0,5.8-13.5-21.7-26.8"/>
	<path class="st4" d="M463.3,78.3c0,0-1.5-14.9,17.1-16.8c1.3-0.1,2.7-0.2,4.2-0.2c0,0-6.3,5.8-5,8.5"/>
	<path class="st4" d="M553.9,68.6c0,0-12.6-19.8-25.6-20.5c0,0-3.1-9.3-9.9-13.8c0,0,7.9,8.9,1.8,13.1c0,0-9.4-11.5-26.5-7.6
		c0,0,20.5,0,15,8.1c0,0-20.9,6.5-31,14"/>
	<path class="st4" d="M571.2,74.5c0,0-15.2,0.8-14.4,3.8c0,0,2.9,14.9,11.3,9.1c0,0,4.9-5.7,3.4-11.7c-0.3-1.2-0.9-2.5-1.9-3.7
		c0,0-2.4-11-21.2-10.7"/>
	<path class="st4" d="M473,92.4l-1.5-2.1c-7.3-3.4-9.4-9.2-9.4-9.2c2.6-10.2,14.4-3.1,14.4-3.1c-1.8,4.3-2.7,8.1-3.2,11.5
		c-1.4,10.2,1.9,16.2,1.9,16.2c21.7,16.2,17.8,33.2,17.8,33.2"/>
	<path class="st4" d="M541.1,139c0,0,2.1-19.4,4.7-22.8c0,0,13.9-0.8,16.5-27.5"/>
	<path class="st4" d="M531.4,139c0,0,0.5-12.8,2.4-15.2c0,0,8.6-3.4,12-7.6"/>
	<path class="st4" d="M497.3,121.8c0,0,18.7,12.1,36.5,2"/>
	<path class="st4" d="M499.8,100.8c0,0-2.9,17.3,19.1,13.1c0,0,16.5,3.4,14.9-12"/>
	<path class="st4" d="M509.4,99.2c0,0,8.6-3.7,13.6,0c0,0,1.8,7-6.3,8.1C516.8,107.3,508.1,105.3,509.4,99.2z"/>
	<path class="st4" d="M492.2,60c0,0,8.3,1.9,14,6.9c1,0.9,1.9,1.8,2.7,2.9c2.8,3.8,3.8,8.9,0.5,15.6c0,0,0.3,3.6-3.1,5.3
		c-2,1-5.3,1.4-10.7-0.1c0,0-9.4-6-3.4-20.8c0,0,8.2-4.9,15.9-1.1"/>
	<path class="st4" d="M504.2,91.7c0,0-14-18.7,7.1-15.9"/>
	<path class="st4" d="M541.1,60c0,0-4.7,1.3-9.3,4.3c-6.7,4.4-13,12.2-3.8,24.5c0,0,12,7.2,13.1-5.2c0,0,7.8-23.3-15.9-14.9"/>
	<path class="st4" d="M523.2,75.8c0,0,15.5-5,10.6,15"/>
</g>
<g id="Layer_8" class="st0">
	<path class="st2" d="M52.9,268.6c0,0-29.1-5.4-12.5-59.6c1.6,0.6,1.7-13,14.6-19.6c6.9-3.6,9.8-8.5,20.3-8.8
		c12.4-0.4,33-1.1,40.5,2c0,0,17,5.1,24.4,26.7c0,0,10.8,40.6-2.4,51.4c0,0-11.2,11.5-32.1,11.8C105.7,272.7,62.8,274.7,52.9,268.6z
		"/>
	<path class="st5" d="M64.8,182.7"/>
	<path class="st5" d="M36.8,208.5"/>
	<path class="st5" d="M140.2,209.4c-3.4-18.1-24.4-26.7-24.4-26.7"/>
	<path class="st3" d="M40.4,209.1c0,0,0.7-8.3,6.5-13c7.8-6.3,16.1-14,17.8-13.4c0,0-10.8-19.7-25.4-2.4c0,0-13,15.3-2.6,25.9
		C37.8,207.2,39,208.2,40.4,209.1"/>
	<path class="st3" d="M114.1,182.1c0,0,13.3-17.3,23.5-5.2c0,0,14.2,11.8,10.2,22c0,0-4.7,10.8-8.1,7.8S125.4,183.6,114.1,182.1z"/>
	<path class="st3" d="M52.3,232.4c0,0,10.5-20,16.9-18.6c0,0,13.5,0.9,10.5,9.3c0,0-7.3,24.2-13.5,24.9c0,0-9.9,4.1-13.9-4.7
		C52.3,243.3,49.2,232.8,52.3,232.4z"/>
	<path class="st3" d="M103.4,216.5c0,0,5.9-6.6,10.7-2.8c0,0,14.9,11.2,14,20c0,0,2.1,13.4-7.1,15.1c0,0-7.1,2.8-13.2-8.7
		C107.8,240.2,96.3,217.5,103.4,216.5z"/>
	<path class="st3" d="M83.1,251c0,0-0.6-5.4,6.8-4.1c0,0,8.4-0.7,9.1,4.1c0,0-8.5,1.7-8,3.4C91,254.4,85.4,249.7,83.1,251z"/>
</g>
<g id="Layer_9" class="st0">
	<path class="st2" d="M178.2,182.8c0,0,34.9,26.4,59.5,23c0,0,21,2,29.2-31.2c0,0,9-32,33-12.3c0,0,4.7,10.3,6.5,11.5
		c0,0,6.3,10.3,3.8,10.7c0,0-12.5-8.3-16.7,2.7c0,0-1,16.8,4.2,35.5c0,0,0,24.7-18.5,33.7c0,0-27.4,22.5-56.7,2
		c0,0-26.9-13-32.7-28.4c0,0-5-5.5-6.2-5c-1.2,0.5,8.3-5.2,9.5-3c0,0-5.3-4.7-11.3-5c0,0,5.7-10.3,16.5-6.7
		C198.3,210.3,174,193,178.2,182.8z"/>
	<path class="st2" d="M263.4,223.8c0,0-0.4,44.8-46.4,31.6"/>
	<path class="st2" d="M274.9,160.6c0,0-14-18.8,6-12.5c0,0,3.8-15.3,12-1.3c0,0,17.5-0.2,4.3,13.4"/>
	<path class="st3" d="M285.4,171.3c0,0,0.8-9.8,8.2-2.5C293.6,168.8,293.6,181.3,285.4,171.3z"/>
	<path class="st6" d="M248,267v9.3c0,0-11.5,6.9-10.5,8.9c0,0,10.9-7.8,12.5-5.4c0,0,12.3,3.1,11.8,6.9c0,0,8.1-4.8-1.9-6.8
		c-0.6-0.1-11.8-3.8-13.8-3.1"/>
</g>
<g id="Layer_10" class="st0">
	<path class="st2" d="M349.3,217.9c0,0-8.2-15.7,21.4-28.1c0,0,21.5-2.1,22.5,14c0,0,0.4,20.4-21.2,19.9c0,0-2.1,0.6-5.1,0.9
		C361.5,225.2,353.1,224.7,349.3,217.9z"/>
	<path class="st2" d="M361.5,225.2c0,0,4.6-5.5,6.7,11.3c0,0,6.3,7.2,5.1,11.1c0,0-6.5,18.3-8,19.1c-1.5,0.8,1.5-0.8,1.5-0.8
		s-16.7,4.3-14.3,9.3c0,0,1.9,3.6,18.3,1.8l22.4-32.2c0,0,0.2-5.9,15.1-8.5c0,0-27.4,4.6-15.1,21.6c0,0,11,8.2,16.8,7.5
		c0,0-33.2,1-33.3,6.2c0,0-6.5,8.7,15.1,5.9l44.3-0.5c0,0,5.6,1.8,3.8-8c0,0-3.4-4.6-0.3-8.2c0.7-0.9,1.8-1.7,3.4-2.3
		c0,0,3.6-4.1,5-10.4c1.4-6.3,0.5-14.6-8.3-23.1c0,0-5.4-13.1-26-12.3c-20.6,0.8-1.7,0-1.7,0s-10,3.7-19-6.9"/>
	<path class="st7" d="M438.4,264.8c0,0,16.3,4.5,18.3-0.4s6.3-14.4-8.7-16.4"/>
	<path class="st2" d="M380.5,189.8c0,0,27-25.7,35.8-19c0,0,5.9,4.1-3.1,9l-24.4,14.6c0,0,28-20.9,37.3-12.4c0,0,9.8,6-33.3,18.9"/>
	<path class="st8" d="M362.8,209.2c0,0,2.9-5.7,6.2,0C369,209.2,366.4,217.7,362.8,209.2z"/>
</g>
<g id="Layer_12" class="st0">
	<path class="st7" d="M519.5,189.8c-0.6,0.3-14.8,21-20.1,43.6c-2.9,12.6-3.1,25.8,3.5,36.3c0,0,6.2,10.4,45.7,8.8
		c0,0,34.5-3.9,32.7-29.8c0,0-10-58.4-32.7-62.8C548.5,185.9,537.7,179.6,519.5,189.8z"/>
	<path class="st7" d="M519.5,192.1c0,0-5.1-12.5-20.1,1.6c0,0-35.4,37.9,0,37.9"/>
	<path class="st7" d="M557.7,191c0,0,16.9-12.6,32.5,20.4c0,0,13,18.6-12.6,21.8"/>
	<path class="st7" d="M536.4,278.7v-19.4c0,0-17.8-11.4-6.3-17.9c0,0,19.6-2.9,19.8,1.8c0,0,0.9,11.7-10.5,15.3v20.1"/>
	<path class="st9" d="M524,223.8c0,0-0.7-7,5.5-2.9C529.6,220.9,529.9,230,524,223.8z"/>
	<path class="st9" d="M547,224.3c0,0,1.7-7.5,7-2.9C553.9,221.4,555.5,230,547,224.3z"/>
</g>
<g id="Layer_13" class="st0">
	<path class="st4" d="M77.4,418.6c0,0-8.4-7.5-3.7-7.1c4.7,0.4-6,3.2-8.8,0c-2.9-3.2-8.2-7.5-6.4-11.8c0,0-10.7,1.4-9.6-15.3
		c0,0-9.3-7.8-2.5-17.5c0,0-7.1-12.5,3.9-18.5c0,0-3.9-10,8.2-15c0,0,1.2-14.3,15.2-12.5c0,0,1.5-10.3,15.1-6.1c0,0,10.7-3.6,18.6-1
		c2.1,0.7,14.5-3.2,16,8.5c0,0,14.5-1.8,14.7,10.7c0,0,13.5,3.9,9.9,17.5c0,0,11.4,3.6,2.5,17.5c0,0,9.6,10.3-3.2,16.8
		c0,0,4.5,15.7-9.7,15.3c0,0,0.8,14.6-12.4,11.8c0,0-3.2,7.8-5.3,6.8l-1.2,14.3c0,0-5.4,6.4-11.2-1.8v-13.2c0,0-7.6,8.2-16.7-0.4
		v14.3c0,0-4.8,4.4-7.6,3.5c0,0-6.8-0.6-5.7-7V418.6z"/>
	<path class="st4" d="M65.3,376.5c0,0,11.2-1.4,13.6-8.2c0,0,10.2,1.1,11.8-5c0,0,8.4,6.4,15.2,0c0,0,0.3,6.1,10.5,5
		c0,0,9.5,8.9,14.5,8.2c0,0,2.7,7.5-8.5,5c0,0-6.2-3.2-6.2-5c0-1.8,0,1.8,0,1.8s6.2,21.8-14,29.6c0,0-15.7,3.6-23.3-19.6v-11.4
		C78.9,376.8,71,389.3,65.3,376.5z"/>
	<path class="st4" d="M83.5,378.3c0,0,5,6.8,9.3,0"/>
	<path class="st4" d="M102.3,378.3c0,0,7.1,7.1,9.2,0"/>
	<path class="st4" d="M96,402.5c0,0,3.2-3.2,4.5,0C101.7,405.7,98.1,405,96,402.5z"/>
</g>
<g id="Layer_14" class="st0">
	<path class="st4" d="M286.3,369.8c-0.7,11.3,3.9,16.2,3.9,16.2c7.8,3.7,3.9,30.1,3.9,30.1h6.5l0.7-30.4l4.9-7.6
		c6.6-6.3,4.4-22.6,4.4-22.6c0.7-10.7-12.7-15.8-12.7-15.8c-4.6-5.1-18.9,1.9-18.9,1.9c-11.6,2.5-28.6-4.6-28.6-4.6
		c-4.6-5.4-9.6-1.5-9.6-1.5c8.5-1.7,6.1-11.7,6.1-11.7c-0.6-1.4-10.4,6.1-10.4,6.1l2-2.4c-5.1-5.1-12.4,1.7-12.4,1.7l-14.9,16.1
		c0,0,0.7,7.3,8.7,7.3c0,0,10.5-4.6,13.4,1.4c0,0,9.2,16.3,10.2,27c0,0,0.2,7.3,11.2,7.1c0,0-8-10-5.6-11.7"/>
	<path class="st4" d="M265.1,377.2c0,0-0.2,1.4-0.5,3.7c-0.2,1.3-0.3,2.8-0.5,4.6c-0.1,0.6-0.1,1.2-0.2,1.8
		c-1.3,10.9-2.9,27.1-2,28.8h-6.5c0,0,3.2-26.2-0.7-28"/>
	<path class="st4" d="M286.3,370.7"/>
	<path class="st4" d="M264.1,385.4c0,0,16.6-5.7,26.1,0.6"/>
	<path class="st4" d="M243.7,344.7c0,0-8.8,10.9-15.8,6.1"/>
	<path class="st4" d="M308.9,348.4c0,0,11.9,3,8.9,18.4l0.5,14.1c0,0-6.1,1-2.5,8.2l3.4,7.6c0,0,4.4-6.2,3.7-10.6
		c0,0,0.2-4.2-3.7-5.3"/>
	<path class="st3" d="M226.3,339.1c0,0,1-3.6,3.4-0.8C232.1,341,226.7,343,226.3,339.1z"/>
</g>
</svg>
