<?xml version="1.0" encoding="utf-8"?>
<!-- Generator: Adobe Illustrator 22.0.0, SVG Export Plug-In . SVG Version: 6.00 Build 0)  -->
<svg version="1.1" id="Layer_1" xmlns="http://www.w3.org/2000/svg" xmlns:xlink="http://www.w3.org/1999/xlink" x="0px" y="0px"
	 viewBox="0 0 125.5 84.5" style="enable-background:new 0 0 125.5 84.5;" xml:space="preserve">
<style type="text/css">
	.st0{display:none;}
	.st1{display:inline;}
	.st2{fill:none;stroke:#000000;stroke-width:2;stroke-miterlimit:10;}
	.st3{display:inline;fill:none;stroke:#000000;stroke-width:4;stroke-miterlimit:10;}
	.st4{display:inline;fill:none;stroke:#000000;stroke-width:3;stroke-miterlimit:10;}
	.st5{display:inline;fill:none;stroke:#000000;stroke-miterlimit:10;}
	.st6{display:inline;stroke:#000000;stroke-miterlimit:10;}
	.st7{display:inline;fill:none;stroke:#000000;stroke-width:8;stroke-miterlimit:10;}
	.st8{display:inline;stroke:#000000;stroke-width:4;stroke-miterlimit:10;}
	.st9{display:inline;stroke:#000000;stroke-width:8;stroke-miterlimit:10;}
</style>
<g id="Layer_2_1_" class="st0">
	<path class="st1" d="M-102.1-19.6c0,0,6.1-2.2,19.6,24.4c0,0-4.2,3.4-3.9,8.2l-2.6-2.2c0,0,1.8-10.7-7.7-16.7c0,0-3.9-0.1-1.9,3.4
		c0,0,3.4,0.9,6.4,12.1c0,0-2,0,0,3.9l5.7,5h21.2l6-5.6c0,0,1.6-0.7,0-5.4c0,0,3.2-9.2,6-9.8c0,0,3.1-2.6-0.9-3.4
		c0,0-6.5,0.8-8.3,12c0,0-0.9,4.5-0.4,4.5l-2.3,2c0,0,0.1-5.8-4.5-8.5c0,0,12.4-22.1,14.9-21.6c0,0,3.9-3.7,6.6-2.5
		c0,0,3.2-2.4,0-3.8c0,0-7.2,0.4-12.4,8c0,0-8.8,9.9-11.5,18.9c0,0-4.4-1-6.6,0.1c0,0-10.1-21.2-17.8-24.6c0,0-6.3-4.7-7.7-1.5
		C-104.6-22.6-105.1-20.5-102.1-19.6z"/>
	<path class="st1" d="M-86.8,22.9h8.8V76c0,0-7.7-2.5-10.5-20.5l-6.4,7.7l6.7,14c0,0,1.6,1.3,0,3.5L-94.9,93c0,0-0.6,1.6-2.8,0
		c0,0-1.5-1.5,0-2.6l5.8-11.3L-102,58.3c0,0-1.3-2.4,1-4.6l12.6-21.1v-3.8l-5.1,3.4c0,0-1.9,1-4.4-0.3c0,0-4.4-2.6-10.2-1.5
		c0,0-2.6,1-3.7-1.6c0,0,0.1-2.6,4.4-2.8c0,0,9-0.1,12.5,2.3L-86.8,22.9z"/>
	<path class="st1" d="M-73.8,22.9v52.6c0,0,8.2-1.6,9.8-20.2l7,7.7l-7,14.6c0,0-1.2,2,0.3,2.9l6.7,12.4c0,0,2.9,2.8,3.4-1.5
		l-6.6-12.3L-50,58.2c0,0,1.3-0.7,0-4.5l-13.8-21l0.3-3.8l4.5,2.8c0,0,2.3,2.3,4.4,0.1c0,0,6.9-2.6,10.8-1.5c0,0,3.8,1,3.1-2.2
		c0,0,0.9-3.1-8.3-1.9c0,0-7.9,1.3-8.1,2.3c0,0-4.1-3.8-8.5-5.7L-73.8,22.9L-73.8,22.9z"/>
</g>
<g id="Layer_4">
	<path class="st2" d="M36.2,90.9"/>
	<path class="st2" d="M1.6,55.5c0,0,0.6-6.1,6.4,0c0,0,2.2,0.5,2,0s3.8-9.9,3.8-9.9s0.8-4.3,4.5-1.3c0,0-0.8-5.3,0-8.6
		c0.8-3.3,8.1-5.1,9.6-2.9c0,0,4.3-2.6,6.4-1c0,0,2.7,2.6,1.3,8.5c0,0-0.1-7.5,0.4-9.6c0,0,4.7,1,5,1.9c0,0,0.5,4.1,0,6.9l0.5-2.7
		c0,0-2.2-6.5,2.1-4.5c0,0,7.7,1.4,7.8,2.4c0,0-5.1,9.4-4.9,12c0,0-3.7,6.7-7.2,5.3c0,0-4.3-2.1-8.9-1.3c0,0-1.1,3.3-2.7,3.3
		c0,0-3.9,0.4-6.8-4.3c-0.6-1.1-1.2-2.4-1.7-4l-0.3,1.9L16,46.3l-3.8,10c0,0,0.8,2.2-4.3,1.4L1.6,55.5z"/>
	<path class="st2" d="M23,48.3l-2.3,1.4L23,48.3z"/>
	<path class="st2" d="M23,44.4c0,0-1.1,5.8,6.6,7.5"/>
	<path class="st2" d="M23.8,40.3c0,0-0.3-8.9,4-3.1C27.8,37.2,29.1,48.2,23.8,40.3z"/>
	<path class="st2" d="M5.4,8.3c0,0,10.8,24.3,13.5,26.2c0,0,1.4-2,1.9-1.5c0,0-1.5-2.5,0-16.5"/>
	<path class="st2" d="M30.3,52.8c0,0,2.9,0.8-0.7,9.6c0,0-0.4,4.9-3.6,9.5c-0.1,0.1-0.1,0.2-0.2,0.3c-3.3,4.6-3.5,9.9-5.2,9.9
		c0,0,1.8-0.5,3.1,0.6c0,0,3.4-10.7,5.9-12.8c0,0,4-5.4,4.5-7.7c0,0,0.8-7.2,2.1-7.2c0,0,8.3,2.9,8.6,4.1c0,0,20.7,1.6,23.6,2.7
		v-2.2c0,0,9.2,12.8,10.5,13.1c1.3,0.3-1.3-0.3-1.3-0.3s10-0.6,10.4,0.6l0.8,1l1.8,0.3l-4.1-3.5l-6.4,0.5L68.9,58.1
		c0,0-2.2-0.7-12.3-1.4c0,0-4.6,0-4.6-4.6c0,0,2.2-4-0.8-7.5"/>
	<path class="st2" d="M46.8,33.1l1.9-0.5l2.5-0.6c0,0,8.8-14,14.8-21c0,0,3.2-15,8-8.5c0,0,1.6,6.1,0,5.7c0,0-3.3,0.3-5.6,4.1
		c0,0-7.7,18.7-9.4,19.8h-6.9l21-0.3L72,10.3"/>
	<polyline class="st2" points="74.7,9.2 76.7,31.6 70.4,31.9 	"/>
	<path class="st2" d="M110.4,61.1c0,0-2.6-4.6-6.4,1.1h-7.7c0,0-2.7,0.1-1.4-2.9c0,0,4.1-15.9,2.6-35.7c0,0-5.7-0.2-6.9,3.8
		c0,0-4.9-0.5-8.1,10.8c0,0-10.7,16.4-19,17.2c0,0-5.6-2.4,0-8.1c0,0,13.7-18.7,20.4-20.4c0,0,0.5-1.9,5.6-5.6c0,0,4.6-7.5,7.8-6.2
		c0,0,3.5,2.4,3,6.2c0,0,1,10.9,0.3,10.5c-0.7-0.4,0,14.5-1,16.3L97.5,58c0,0-0.2,2.2,3.2,2.2C100.8,60.3,112,55.7,110.4,61.1z"/>
	<line class="st2" x1="85.8" y1="31.9" x2="97.8" y2="31.4"/>
	<path class="st2" d="M100.9,30.8c0,0,18.3-0.6,21.6,1.2c0,0,3.5,0.8,1.3,5.1c0,0-2.9,5.7-20.9,8.6h-2.8"/>
	<path class="st2" d="M97.2,45.6c0,0-13.7-2.3-17-4.1"/>
	<path class="st2" d="M76.9,45.6c0,0,17,2.7,20,1.8"/>
	<path class="st2" d="M67,54.4c0,0,19.4,0.1,29-4.6"/>
	<path class="st2" d="M47.9,41.5c0,0,19.1,1.3,18.5,2.1c-0.6,0.7,2.6-3.2,2.6-3.2S51.5,38.2,49.1,39"/>
</g>
<g id="Layer_3" class="st0">
	<path class="st3" d="M174.4-29.8c0,0,16.1-5,25,33.7c0,0-8.8,9.4-1.7,17l-3.8,11.5l-8.6-1.6L166.8-2h-3.2"/>
	<polyline class="st3" points="243.1,-2 238.7,-2 221,31.5 211.1,33.1 	"/>
	<polyline class="st3" points="243.8,88.1 240.1,88.1 225.4,45.7 212.7,38.6 	"/>
	<path class="st3" d="M208.4,21.1c0,0,2.7,8.8,4,20.9c1.1,9.6,1.3,21.2-1.2,32.1c0,0,0,2.1-0.3,5.1c-0.6,6.5-2.5,17-8.2,18.5
		c0,0-12.5-13.3-8.2-38.3c0.2-0.9-3.4-24.1,2.7-37c1.2-2.5,5,0.8,6.8,1c3,0.4,4.6-2.3,6.4-3.9C213.2,17,210,9.2,210,9.2"/>
	<path class="st3" d="M211.1,75.1c0,0,3.3,13.1,8.8,12.9c0,0,7.6-18.6-7.6-46.1"/>
	<path class="st3" d="M160.8,88.1h3.8l14.9-42.5l14.5-8.1c0,0-11.1,28.2-10,40c0,0-1.2,9.9,2.4,10.6c0,0,7.2-4.3,7.6-11.2"/>
	<path class="st1" d="M197.2,6.9c0,0,6.8,4.4-1.4,3"/>
	<path class="st1" d="M209.3,6.9c0,0-8,4.9,1.9,3.3"/>
	<path class="st1" d="M201,35.1c0,0,3.7-2.3,5.2,0c0,0,1.3,2.7-3.5,2.3C202.6,37.4,200,38.8,201,35.1z"/>
	<path class="st1" d="M201,48.6c0,0,3.7-2.3,5.2,0c0,0,1.3,2.7-3.5,2.3C202.6,50.9,200,52.3,201,48.6z"/>
	<path class="st1" d="M201,61.9c0,0,3.7-2.3,5.2,0c0,0,1.3,2.7-3.5,2.3C202.6,64.3,200,65.7,201,61.9z"/>
	<path class="st1" d="M201,75.3c0,0,3.7-2.3,5.2,0c0,0,1.3,2.7-3.5,2.3C202.6,77.6,200,79,201,75.3z"/>
	<path class="st1" d="M206.9,1.3"/>
	<path class="st3" d="M199.4,3.9c0,0,4.8-4.9,9.3,1.7"/>
	<path class="st3" d="M205.8,2.8c0,0,13.2-39.9,26.9-32"/>
	<path class="st3" d="M210.5,10.5c0,0-0.9-5.7-3.6-7"/>
</g>
<g id="Layer_6" class="st0">
	<path class="st4" d="M346.9,84c0,0,5.8-13.5-21.7-26.8"/>
	<path class="st4" d="M306,23.3c0,0-1.5-14.9,17.1-16.8c1.3-0.1,2.7-0.2,4.2-0.2c0,0-6.3,5.8-5,8.5"/>
	<path class="st4" d="M396.6,13.6c0,0-12.6-19.8-25.6-20.5c0,0-3.1-9.3-9.9-13.8c0,0,7.9,8.9,1.8,13.1c0,0-9.4-11.5-26.5-7.6
		c0,0,20.5,0,15,8.1c0,0-20.9,6.5-31,14"/>
	<path class="st4" d="M413.9,19.5c0,0-15.2,0.8-14.4,3.8c0,0,2.9,14.9,11.3,9.1c0,0,4.9-5.7,3.4-11.7c-0.3-1.2-0.9-2.5-1.9-3.7
		c0,0-2.4-11-21.2-10.7"/>
	<path class="st4" d="M315.7,37.4l-1.5-2.1c-7.3-3.4-9.4-9.2-9.4-9.2c2.6-10.2,14.4-3.1,14.4-3.1c-1.8,4.3-2.7,8.1-3.2,11.5
		c-1.4,10.2,1.9,16.2,1.9,16.2c21.7,16.2,17.8,33.2,17.8,33.2"/>
	<path class="st4" d="M383.8,84c0,0,2.1-19.4,4.7-22.8c0,0,13.9-0.8,16.5-27.5"/>
	<path class="st4" d="M374.1,84c0,0,0.5-12.8,2.4-15.2c0,0,8.6-3.4,12-7.6"/>
	<path class="st4" d="M340,66.8c0,0,18.7,12.1,36.5,2"/>
	<path class="st4" d="M342.5,45.8c0,0-2.9,17.3,19.1,13.1c0,0,16.5,3.4,14.9-12"/>
	<path class="st4" d="M352.1,44.2c0,0,8.6-3.7,13.6,0c0,0,1.8,7-6.3,8.1C359.5,52.3,350.8,50.3,352.1,44.2z"/>
	<path class="st4" d="M334.9,5c0,0,8.3,1.9,14,6.9c1,0.9,1.9,1.8,2.7,2.9c2.8,3.8,3.8,8.9,0.5,15.6c0,0,0.3,3.6-3.1,5.3
		c-2,1-5.3,1.4-10.7-0.1c0,0-9.4-6-3.4-20.8c0,0,8.2-4.9,15.9-1.1"/>
	<path class="st4" d="M346.9,36.7c0,0-14-18.7,7.1-15.9"/>
	<path class="st4" d="M383.8,5c0,0-4.7,1.3-9.3,4.3c-6.7,4.4-13,12.2-3.8,24.5c0,0,12,7.2,13.1-5.2c0,0,7.8-23.3-15.9-14.9"/>
	<path class="st4" d="M365.9,20.8c0,0,15.5-5,10.6,15"/>
</g>
<g id="Layer_8" class="st0">
	<path class="st3" d="M-104.4,213.6c0,0-29.1-5.4-12.5-59.6c1.6,0.6,1.7-13,14.6-19.6c6.9-3.6,9.8-8.5,20.3-8.8
		c12.4-0.4,33-1.1,40.5,2c0,0,17,5.1,24.4,26.7c0,0,10.8,40.6-2.4,51.4c0,0-11.2,11.5-32.1,11.8C-51.6,217.7-94.5,219.7-104.4,213.6
		z"/>
	<path class="st5" d="M-92.5,127.7"/>
	<path class="st5" d="M-120.5,153.5"/>
	<path class="st5" d="M-17.1,154.4c-3.4-18.1-24.4-26.7-24.4-26.7"/>
	<path class="st1" d="M-116.9,154.1c0,0,0.7-8.3,6.5-13c7.8-6.3,16.1-14,17.8-13.4c0,0-10.8-19.7-25.4-2.4c0,0-13,15.3-2.6,25.9
		C-119.5,152.2-118.3,153.2-116.9,154.1"/>
	<path class="st1" d="M-43.2,127.1c0,0,13.3-17.3,23.5-5.2c0,0,14.2,11.8,10.2,22c0,0-4.7,10.8-8.1,7.8S-31.9,128.6-43.2,127.1z"/>
	<path class="st1" d="M-105,177.4c0,0,10.5-20,16.9-18.6c0,0,13.5,0.9,10.5,9.3c0,0-7.3,24.2-13.5,24.9c0,0-9.9,4.1-13.9-4.7
		C-105,188.3-108.1,177.8-105,177.4z"/>
	<path class="st1" d="M-53.9,161.5c0,0,5.9-6.6,10.7-2.8c0,0,14.9,11.2,14,20c0,0,2.1,13.4-7.1,15.1c0,0-7.1,2.8-13.2-8.7
		C-49.5,185.2-61,162.5-53.9,161.5z"/>
	<path class="st1" d="M-74.2,196c0,0-0.6-5.4,6.8-4.1c0,0,8.4-0.7,9.1,4.1c0,0-8.5,1.7-8,3.4C-66.3,199.4-71.9,194.7-74.2,196z"/>
</g>
<g id="Layer_9" class="st0">
	<path class="st3" d="M20.9,127.8c0,0,34.9,26.4,59.5,23c0,0,21,2,29.2-31.2c0,0,9-32,33-12.3c0,0,4.7,10.3,6.5,11.5
		c0,0,6.3,10.3,3.8,10.7c0,0-12.5-8.3-16.7,2.7c0,0-1,16.8,4.2,35.5c0,0,0,24.7-18.5,33.7c0,0-27.4,22.5-56.7,2
		c0,0-26.9-13-32.7-28.4c0,0-5-5.5-6.2-5s8.3-5.2,9.5-3c0,0-5.3-4.7-11.3-5c0,0,5.7-10.3,16.5-6.7C41,155.3,16.7,138,20.9,127.8z"/>
	<path class="st3" d="M106.1,168.8c0,0-0.4,44.8-46.4,31.6"/>
	<path class="st3" d="M117.6,105.6c0,0-14-18.8,6-12.5c0,0,3.8-15.3,12-1.3c0,0,17.5-0.2,4.3,13.4"/>
	<path class="st1" d="M128.1,116.3c0,0,0.8-9.8,8.2-2.5C136.3,113.8,136.3,126.3,128.1,116.3z"/>
	<path class="st6" d="M90.7,212v9.3c0,0-11.5,6.9-10.5,8.9c0,0,10.9-7.8,12.5-5.4c0,0,12.3,3.1,11.8,6.9c0,0,8.1-4.8-1.9-6.8
		c-0.6-0.1-11.8-3.8-13.8-3.1"/>
</g>
<g id="Layer_10" class="st0">
	<path class="st3" d="M192,162.9c0,0-8.2-15.7,21.4-28.1c0,0,21.5-2.1,22.5,14c0,0,0.4,20.4-21.2,19.9c0,0-2.1,0.6-5.1,0.9
		C204.2,170.2,195.8,169.7,192,162.9z"/>
	<path class="st3" d="M204.2,170.2c0,0,4.6-5.5,6.7,11.3c0,0,6.3,7.2,5.1,11.1c0,0-6.5,18.3-8,19.1c-1.5,0.8,1.5-0.8,1.5-0.8
		s-16.7,4.3-14.3,9.3c0,0,1.9,3.6,18.3,1.8l22.4-32.2c0,0,0.2-5.9,15.1-8.5c0,0-27.4,4.6-15.1,21.6c0,0,11,8.2,16.8,7.5
		c0,0-33.2,1-33.3,6.2c0,0-6.5,8.7,15.1,5.9l44.3-0.5c0,0,5.6,1.8,3.8-8c0,0-3.4-4.6-0.3-8.2c0.7-0.9,1.8-1.7,3.4-2.3
		c0,0,3.6-4.1,5-10.4c1.4-6.3,0.5-14.6-8.3-23.1c0,0-5.4-13.1-26-12.3s-1.7,0-1.7,0s-10,3.7-19-6.9"/>
	<path class="st7" d="M281.1,209.8c0,0,16.3,4.5,18.3-0.4s6.3-14.4-8.7-16.4"/>
	<path class="st3" d="M223.2,134.8c0,0,27-25.7,35.8-19c0,0,5.9,4.1-3.1,9l-24.4,14.6c0,0,28-20.9,37.3-12.4c0,0,9.8,6-33.3,18.9"/>
	<path class="st8" d="M205.5,154.2c0,0,2.9-5.7,6.2,0C211.7,154.2,209.1,162.7,205.5,154.2z"/>
</g>
<g id="Layer_12" class="st0">
	<path class="st7" d="M362.2,134.8c-0.6,0.3-14.8,21-20.1,43.6c-2.9,12.6-3.1,25.8,3.5,36.3c0,0,6.2,10.4,45.7,8.8
		c0,0,34.5-3.9,32.7-29.8c0,0-10-58.4-32.7-62.8C391.2,130.9,380.4,124.6,362.2,134.8z"/>
	<path class="st7" d="M362.2,137.1c0,0-5.1-12.5-20.1,1.6c0,0-35.4,37.9,0,37.9"/>
	<path class="st7" d="M400.4,136c0,0,16.9-12.6,32.5,20.4c0,0,13,18.6-12.6,21.8"/>
	<path class="st7" d="M379.1,223.7v-19.4c0,0-17.8-11.4-6.3-17.9c0,0,19.6-2.9,19.8,1.8c0,0,0.9,11.7-10.5,15.3v20.1"/>
	<path class="st9" d="M366.7,168.8c0,0-0.7-7,5.5-2.9C372.3,165.9,372.6,175,366.7,168.8z"/>
	<path class="st9" d="M389.7,169.3c0,0,1.7-7.5,7-2.9C396.6,166.4,398.2,175,389.7,169.3z"/>
</g>
<g id="Layer_13" class="st0">
	<path class="st4" d="M-79.9,363.6c0,0-8.4-7.5-3.7-7.1c4.7,0.4-6,3.2-8.8,0c-2.9-3.2-8.2-7.5-6.4-11.8c0,0-10.7,1.4-9.6-15.3
		c0,0-9.3-7.8-2.5-17.5c0,0-7.1-12.5,3.9-18.5c0,0-3.9-10,8.2-15c0,0,1.2-14.3,15.2-12.5c0,0,1.5-10.3,15.1-6.1c0,0,10.7-3.6,18.6-1
		c2.1,0.7,14.5-3.2,16,8.5c0,0,14.5-1.8,14.7,10.7c0,0,13.5,3.9,9.9,17.5c0,0,11.4,3.6,2.5,17.5c0,0,9.6,10.3-3.2,16.8
		c0,0,4.5,15.7-9.7,15.3c0,0,0.8,14.6-12.4,11.8c0,0-3.2,7.8-5.3,6.8l-1.2,14.3c0,0-5.4,6.4-11.2-1.8V363c0,0-7.6,8.2-16.7-0.4v14.3
		c0,0-4.8,4.4-7.6,3.5c0,0-6.8-0.6-5.7-7v-9.8H-79.9z"/>
	<path class="st4" d="M-92,321.5c0,0,11.2-1.4,13.6-8.2c0,0,10.2,1.1,11.8-5c0,0,8.4,6.4,15.2,0c0,0,0.3,6.1,10.5,5
		c0,0,9.5,8.9,14.5,8.2c0,0,2.7,7.5-8.5,5c0,0-6.2-3.2-6.2-5s0,1.8,0,1.8s6.2,21.8-14,29.6c0,0-15.7,3.6-23.3-19.6v-11.4
		C-78.4,321.8-86.3,334.3-92,321.5z"/>
	<path class="st4" d="M-73.8,323.3c0,0,5,6.8,9.3,0"/>
	<path class="st4" d="M-55,323.3c0,0,7.1,7.1,9.2,0"/>
	<path class="st4" d="M-61.3,347.5c0,0,3.2-3.2,4.5,0C-55.6,350.7-59.2,350-61.3,347.5z"/>
</g>
<g id="Layer_14" class="st0">
	<path class="st4" d="M129,314.8c-0.7,11.3,3.9,16.2,3.9,16.2c7.8,3.7,3.9,30.1,3.9,30.1h6.5l0.7-30.4l4.9-7.6
		c6.6-6.3,4.4-22.6,4.4-22.6c0.7-10.7-12.7-15.8-12.7-15.8c-4.6-5.1-18.9,1.9-18.9,1.9c-11.6,2.5-28.6-4.6-28.6-4.6
		c-4.6-5.4-9.6-1.5-9.6-1.5c8.5-1.7,6.1-11.7,6.1-11.7c-0.6-1.4-10.4,6.1-10.4,6.1l2-2.4c-5.1-5.1-12.4,1.7-12.4,1.7l-14.9,16.1
		c0,0,0.7,7.3,8.7,7.3c0,0,10.5-4.6,13.4,1.4c0,0,9.2,16.3,10.2,27c0,0,0.2,7.3,11.2,7.1c0,0-8-10-5.6-11.7"/>
	<path class="st4" d="M107.8,322.2c0,0-0.2,1.4-0.5,3.7c-0.2,1.3-0.3,2.8-0.5,4.6c-0.1,0.6-0.1,1.2-0.2,1.8
		c-1.3,10.9-2.9,27.1-2,28.8h-6.5c0,0,3.2-26.2-0.7-28"/>
	<path class="st4" d="M129,315.7"/>
	<path class="st4" d="M106.8,330.4c0,0,16.6-5.7,26.1,0.6"/>
	<path class="st4" d="M86.4,289.7c0,0-8.8,10.9-15.8,6.1"/>
	<path class="st4" d="M151.6,293.4c0,0,11.9,3,8.9,18.4l0.5,14.1c0,0-6.1,1-2.5,8.2l3.4,7.6c0,0,4.4-6.2,3.7-10.6
		c0,0,0.2-4.2-3.7-5.3"/>
	<path class="st1" d="M69,284.1c0,0,1-3.6,3.4-0.8C74.8,286,69.4,288,69,284.1z"/>
</g>
</svg>
