<?xml version="1.0" encoding="utf-8"?>
<!-- Generator: Adobe Illustrator 22.0.0, SVG Export Plug-In . SVG Version: 6.00 Build 0)  -->
<svg version="1.1" id="Layer_1" xmlns="http://www.w3.org/2000/svg" xmlns:xlink="http://www.w3.org/1999/xlink" x="0px" y="0px"
	 viewBox="0 0 117.8 113.1" style="enable-background:new 0 0 117.8 113.1;" xml:space="preserve">
<style type="text/css">
	.st0{display:none;}
	.st1{display:inline;}
	.st2{display:inline;fill:none;stroke:#000000;stroke-width:2;stroke-miterlimit:10;}
	.st3{display:inline;fill:none;stroke:#000000;stroke-width:4;stroke-miterlimit:10;}
	.st4{display:inline;fill:none;stroke:#000000;stroke-width:3;stroke-miterlimit:10;}
	.st5{display:inline;fill:none;stroke:#000000;stroke-miterlimit:10;}
	.st6{display:inline;stroke:#000000;stroke-miterlimit:10;}
	.st7{fill:none;stroke:#000000;stroke-width:4;stroke-miterlimit:10;}
	.st8{fill:none;stroke:#000000;stroke-width:8;stroke-miterlimit:10;}
	.st9{stroke:#000000;stroke-width:4;stroke-miterlimit:10;}
	.st10{display:inline;fill:none;stroke:#000000;stroke-width:8;stroke-miterlimit:10;}
	.st11{display:inline;stroke:#000000;stroke-width:8;stroke-miterlimit:10;}
</style>
<g id="Layer_2_1_" class="st0">
	<path class="st1" d="M-290.3-132.4c0,0,6.1-2.2,19.6,24.4c0,0-4.2,3.4-3.9,8.2l-2.6-2.2c0,0,1.8-10.7-7.7-16.7c0,0-3.9-0.1-1.9,3.4
		c0,0,3.4,0.9,6.4,12.1c0,0-2,0,0,3.9l5.7,5h21.2l6-5.6c0,0,1.6-0.7,0-5.4c0,0,3.2-9.2,6-9.8c0,0,3.1-2.6-0.9-3.4
		c0,0-6.5,0.8-8.3,12c0,0-0.9,4.5-0.4,4.5l-2.3,2c0,0,0.1-5.8-4.5-8.5c0,0,12.4-22.1,14.9-21.6c0,0,3.9-3.7,6.6-2.5
		c0,0,3.2-2.4,0-3.8c0,0-7.2,0.4-12.4,8c0,0-8.8,9.9-11.5,18.9c0,0-4.4-1-6.6,0.1c0,0-10.1-21.2-17.8-24.6c0,0-6.3-4.7-7.7-1.5
		C-292.8-135.4-293.3-133.3-290.3-132.4z"/>
	<path class="st1" d="M-275-89.8h8.8v53.1c0,0-7.7-2.5-10.5-20.5l-6.4,7.7l6.7,14c0,0,1.6,1.3,0,3.5l-6.7,12.3c0,0-0.6,1.6-2.8,0
		c0,0-1.5-1.5,0-2.6l5.8-11.3l-10.1-20.8c0,0-1.3-2.4,1-4.6l12.6-21.1V-84l-5.1,3.4c0,0-1.9,1-4.4-0.3c0,0-4.4-2.6-10.2-1.5
		c0,0-2.6,1-3.7-1.6c0,0,0.1-2.6,4.4-2.8c0,0,9-0.1,12.5,2.3L-275-89.8z"/>
	<path class="st1" d="M-262-89.8v52.6c0,0,8.2-1.6,9.8-20.2l7,7.7l-7,14.6c0,0-1.2,2,0.3,2.9l6.7,12.4c0,0,2.9,2.8,3.4-1.5
		l-6.6-12.3l10.2-20.9c0,0,1.3-0.7,0-4.5l-13.8-21l0.3-3.8l4.5,2.8c0,0,2.3,2.3,4.4,0.1c0,0,6.9-2.6,10.8-1.5c0,0,3.8,1,3.1-2.2
		c0,0,0.9-3.1-8.3-1.9c0,0-7.9,1.3-8.1,2.3c0,0-4.1-3.8-8.5-5.7L-262-89.8L-262-89.8z"/>
</g>
<g id="Layer_4" class="st0">
	<path class="st2" d="M-152-21.9"/>
	<path class="st2" d="M-186.6-57.3c0,0,0.6-6.1,6.4,0c0,0,2.2,0.5,2,0s3.8-9.9,3.8-9.9s0.8-4.3,4.5-1.3c0,0-0.8-5.3,0-8.6
		c0.8-3.3,8.1-5.1,9.6-2.9c0,0,4.3-2.6,6.4-1c0,0,2.7,2.6,1.3,8.5c0,0-0.1-7.5,0.4-9.6c0,0,4.7,1,5,1.9c0,0,0.5,4.1,0,6.9l0.5-2.7
		c0,0-2.2-6.5,2.1-4.5c0,0,7.7,1.4,7.8,2.4c0,0-5.1,9.4-4.9,12c0,0-3.7,6.7-7.2,5.3c0,0-4.3-2.1-8.9-1.3c0,0-1.1,3.3-2.7,3.3
		c0,0-3.9,0.4-6.8-4.3c-0.6-1.1-1.2-2.4-1.7-4l-0.3,1.9l-2.9-1.3l-3.8,10c0,0,0.8,2.2-4.3,1.4L-186.6-57.3z"/>
	<path class="st2" d="M-165.2-64.4l-2.3,1.4L-165.2-64.4z"/>
	<path class="st2" d="M-165.2-68.3c0,0-1.1,5.8,6.6,7.5"/>
	<path class="st2" d="M-164.4-72.4c0,0-0.3-8.9,4-3.1C-160.4-75.6-159.1-64.6-164.4-72.4z"/>
	<path class="st2" d="M-182.8-104.4c0,0,10.8,24.3,13.5,26.2c0,0,1.4-2,1.9-1.5c0,0-1.5-2.5,0-16.5"/>
	<path class="st2" d="M-157.9-59.9c0,0,2.9,0.8-0.7,9.6c0,0-0.4,4.9-3.6,9.5c-0.1,0.1-0.1,0.2-0.2,0.3c-3.3,4.6-3.5,9.9-5.2,9.9
		c0,0,1.8-0.5,3.1,0.6c0,0,3.4-10.7,5.9-12.8c0,0,4-5.4,4.5-7.7c0,0,0.8-7.2,2.1-7.2c0,0,8.3,2.9,8.6,4.1c0,0,20.7,1.6,23.6,2.7
		v-2.2c0,0,9.2,12.8,10.5,13.1c1.3,0.3-1.3-0.3-1.3-0.3s10-0.6,10.4,0.6l0.8,1l1.8,0.3l-4.1-3.5l-6.4,0.5l-11.2-13.2
		c0,0-2.2-0.7-12.3-1.4c0,0-4.6,0-4.6-4.6c0,0,2.2-4-0.8-7.5"/>
	<path class="st2" d="M-141.4-79.7l1.9-0.5l2.5-0.6c0,0,8.8-14,14.8-21c0,0,3.2-15,8-8.5c0,0,1.6,6.1,0,5.7c0,0-3.3,0.3-5.6,4.1
		c0,0-7.7,18.7-9.4,19.8h-6.9l21-0.3l-1.1-21.5"/>
	<polyline class="st2" points="-113.5,-103.6 -111.5,-81.2 -117.8,-80.8 	"/>
	<path class="st2" d="M-77.8-51.7c0,0-2.6-4.6-6.4,1.1h-7.7c0,0-2.7,0.1-1.4-2.9c0,0,4.1-15.9,2.6-35.7c0,0-5.7-0.2-6.9,3.8
		c0,0-4.9-0.5-8.1,10.8c0,0-10.7,16.4-19,17.2c0,0-5.6-2.4,0-8.1c0,0,13.7-18.7,20.4-20.4c0,0,0.5-1.9,5.6-5.6c0,0,4.6-7.5,7.8-6.2
		c0,0,3.5,2.4,3,6.2c0,0,1,10.9,0.3,10.5s0,14.5-1,16.3l-2.1,9.9c0,0-0.2,2.2,3.2,2.2C-87.4-52.4-76.2-57.1-77.8-51.7z"/>
	<line class="st2" x1="-102.4" y1="-80.8" x2="-90.4" y2="-81.3"/>
	<path class="st2" d="M-87.3-81.9c0,0,18.3-0.6,21.6,1.2c0,0,3.5,0.8,1.3,5.1c0,0-2.9,5.7-20.9,8.6h-2.8"/>
	<path class="st2" d="M-91-67.2c0,0-13.7-2.3-17-4.1"/>
	<path class="st2" d="M-111.3-67.2c0,0,17,2.7,20,1.8"/>
	<path class="st2" d="M-121.2-58.3c0,0,19.4,0.1,29-4.6"/>
	<path class="st2" d="M-140.3-71.3c0,0,19.1,1.3,18.5,2.1c-0.6,0.7,2.6-3.2,2.6-3.2s-17.5-2.2-19.9-1.4"/>
</g>
<g id="Layer_3" class="st0">
	<path class="st3" d="M-13.8-142.6c0,0,16.1-5,25,33.7c0,0-8.8,9.4-1.7,17L5.7-80.3l-8.6-1.6l-18.5-32.8h-3.2"/>
	<polyline class="st3" points="54.9,-114.8 50.5,-114.8 32.8,-81.3 22.9,-79.7 	"/>
	<polyline class="st3" points="55.6,-24.6 51.9,-24.6 37.2,-67.1 24.5,-74.2 	"/>
	<path class="st3" d="M20.2-91.7c0,0,2.7,8.8,4,20.9c1.1,9.6,1.3,21.2-1.2,32.1c0,0,0,2.1-0.3,5.1c-0.6,6.5-2.5,17-8.2,18.5
		c0,0-12.5-13.3-8.2-38.3c0.2-0.9-3.4-24.1,2.7-37c1.2-2.5,5,0.8,6.8,1c3,0.4,4.6-2.3,6.4-3.9c2.8-2.5-0.4-10.3-0.4-10.3"/>
	<path class="st3" d="M22.9-37.6c0,0,3.3,13.1,8.8,12.9c0,0,7.6-18.6-7.6-46.1"/>
	<path class="st3" d="M-27.4-24.6h3.8l14.9-42.5l14.5-8.1c0,0-11.1,28.2-10,40c0,0-1.2,9.9,2.4,10.6c0,0,7.2-4.3,7.6-11.2"/>
	<path class="st1" d="M9-105.8c0,0,6.8,4.4-1.4,3"/>
	<path class="st1" d="M21.1-105.8c0,0-8,4.9,1.9,3.3"/>
	<path class="st1" d="M12.8-77.7c0,0,3.7-2.3,5.2,0c0,0,1.3,2.7-3.5,2.3C14.4-75.3,11.8-73.9,12.8-77.7z"/>
	<path class="st1" d="M12.8-64.2c0,0,3.7-2.3,5.2,0c0,0,1.3,2.7-3.5,2.3C14.4-61.8,11.8-60.4,12.8-64.2z"/>
	<path class="st1" d="M12.8-50.8c0,0,3.7-2.3,5.2,0c0,0,1.3,2.7-3.5,2.3C14.4-48.4,11.8-47.1,12.8-50.8z"/>
	<path class="st1" d="M12.8-37.4c0,0,3.7-2.3,5.2,0c0,0,1.3,2.7-3.5,2.3C14.4-35.1,11.8-33.8,12.8-37.4z"/>
	<path class="st1" d="M18.7-111.4"/>
	<path class="st3" d="M11.2-108.8c0,0,4.8-4.9,9.3,1.7"/>
	<path class="st3" d="M17.6-109.9c0,0,13.2-39.9,26.9-32"/>
	<path class="st3" d="M22.3-102.3c0,0-0.9-5.7-3.6-7"/>
</g>
<g id="Layer_6" class="st0">
	<path class="st4" d="M158.7-28.8c0,0,5.8-13.5-21.7-26.8"/>
	<path class="st4" d="M117.8-89.4c0,0-1.5-14.9,17.1-16.8c1.3-0.1,2.7-0.2,4.2-0.2c0,0-6.3,5.8-5,8.5"/>
	<path class="st4" d="M208.4-99.2c0,0-12.6-19.8-25.6-20.5c0,0-3.1-9.3-9.9-13.8c0,0,7.9,8.9,1.8,13.1c0,0-9.4-11.5-26.5-7.6
		c0,0,20.5,0,15,8.1c0,0-20.9,6.5-31,14"/>
	<path class="st4" d="M225.7-93.3c0,0-15.2,0.8-14.4,3.8c0,0,2.9,14.9,11.3,9.1c0,0,4.9-5.7,3.4-11.7c-0.3-1.2-0.9-2.5-1.9-3.7
		c0,0-2.4-11-21.2-10.7"/>
	<path class="st4" d="M127.5-75.3l-1.5-2.1c-7.3-3.4-9.4-9.2-9.4-9.2c2.6-10.2,14.4-3.1,14.4-3.1c-1.8,4.3-2.7,8.1-3.2,11.5
		C126.4-68,129.7-62,129.7-62c21.7,16.2,17.8,33.2,17.8,33.2"/>
	<path class="st4" d="M195.6-28.8c0,0,2.1-19.4,4.7-22.8c0,0,13.9-0.8,16.5-27.5"/>
	<path class="st4" d="M185.9-28.8c0,0,0.5-12.8,2.4-15.2c0,0,8.6-3.4,12-7.6"/>
	<path class="st4" d="M151.8-45.9c0,0,18.7,12.1,36.5,2"/>
	<path class="st4" d="M154.3-66.9c0,0-2.9,17.3,19.1,13.1c0,0,16.5,3.4,14.9-12"/>
	<path class="st4" d="M163.9-68.6c0,0,8.6-3.7,13.6,0c0,0,1.8,7-6.3,8.1C171.3-60.4,162.6-62.4,163.9-68.6z"/>
	<path class="st4" d="M146.7-107.8c0,0,8.3,1.9,14,6.9c1,0.9,1.9,1.8,2.7,2.9c2.8,3.8,3.8,8.9,0.5,15.6c0,0,0.3,3.6-3.1,5.3
		c-2,1-5.3,1.4-10.7-0.1c0,0-9.4-6-3.4-20.8c0,0,8.2-4.9,15.9-1.1"/>
	<path class="st4" d="M158.7-76.1c0,0-14-18.7,7.1-15.9"/>
	<path class="st4" d="M195.6-107.8c0,0-4.7,1.3-9.3,4.3c-6.7,4.4-13,12.2-3.8,24.5c0,0,12,7.2,13.1-5.2c0,0,7.8-23.3-15.9-14.9"/>
	<path class="st4" d="M177.7-91.9c0,0,15.5-5,10.6,15"/>
</g>
<g id="Layer_8" class="st0">
	<path class="st3" d="M-292.6,100.9c0,0-29.1-5.4-12.5-59.6c1.6,0.6,1.7-13,14.6-19.6c6.9-3.6,9.8-8.5,20.3-8.8
		c12.4-0.4,33-1.1,40.5,2c0,0,17,5.1,24.4,26.7c0,0,10.8,40.6-2.4,51.4c0,0-11.2,11.5-32.1,11.8C-239.8,105-282.7,107-292.6,100.9z"
		/>
	<path class="st5" d="M-280.7,14.9"/>
	<path class="st5" d="M-308.7,40.8"/>
	<path class="st5" d="M-205.3,41.6c-3.4-18.1-24.4-26.7-24.4-26.7"/>
	<path class="st1" d="M-305.1,41.4c0,0,0.7-8.3,6.5-13c7.8-6.3,16.1-14,17.8-13.4c0,0-10.8-19.7-25.4-2.4c0,0-13,15.3-2.6,25.9
		C-307.7,39.4-306.5,40.4-305.1,41.4"/>
	<path class="st1" d="M-231.4,14.4c0,0,13.3-17.3,23.5-5.2c0,0,14.2,11.8,10.2,22c0,0-4.7,10.8-8.1,7.8S-220.1,15.9-231.4,14.4z"/>
	<path class="st1" d="M-293.2,64.6c0,0,10.5-20,16.9-18.6c0,0,13.5,0.9,10.5,9.3c0,0-7.3,24.2-13.5,24.9c0,0-9.9,4.1-13.9-4.7
		C-293.2,75.6-296.3,65.1-293.2,64.6z"/>
	<path class="st1" d="M-242.1,48.8c0,0,5.9-6.6,10.7-2.8c0,0,14.9,11.2,14,20c0,0,2.1,13.4-7.1,15.1c0,0-7.1,2.8-13.2-8.7
		C-237.7,72.4-249.2,49.8-242.1,48.8z"/>
	<path class="st1" d="M-262.4,83.3c0,0-0.6-5.4,6.8-4.1c0,0,8.4-0.7,9.1,4.1c0,0-8.5,1.7-8,3.4C-254.5,86.6-260.1,81.9-262.4,83.3z"
		/>
</g>
<g id="Layer_9" class="st0">
	<path class="st3" d="M-167.3,15.1c0,0,34.9,26.4,59.5,23c0,0,21,2,29.2-31.2c0,0,9-32,33-12.3c0,0,4.7,10.3,6.5,11.5
		c0,0,6.3,10.3,3.8,10.7c0,0-12.5-8.3-16.7,2.7c0,0-1,16.8,4.2,35.5c0,0,0,24.7-18.5,33.7c0,0-27.4,22.5-56.7,2
		c0,0-26.9-13-32.7-28.4c0,0-5-5.5-6.2-5s8.3-5.2,9.5-3c0,0-5.3-4.7-11.3-5c0,0,5.7-10.3,16.5-6.7
		C-147.2,42.6-171.5,25.3-167.3,15.1z"/>
	<path class="st3" d="M-82.1,56.1c0,0-0.4,44.8-46.4,31.6"/>
	<path class="st3" d="M-70.6-7.1c0,0-14-18.8,6-12.5c0,0,3.8-15.3,12-1.3c0,0,17.5-0.2,4.3,13.4"/>
	<path class="st1" d="M-60.1,3.6c0,0,0.8-9.8,8.2-2.5C-51.9,1.1-51.9,13.6-60.1,3.6z"/>
	<path class="st6" d="M-97.5,99.3v9.3c0,0-11.5,6.9-10.5,8.9c0,0,10.9-7.8,12.5-5.4c0,0,12.3,3.1,11.8,6.9c0,0,8.1-4.8-1.9-6.8
		c-0.6-0.1-11.8-3.8-13.8-3.1"/>
</g>
<g id="Layer_10">
	<path class="st7" d="M3.8,50.1c0,0-8.2-15.7,21.4-28.1c0,0,21.5-2.1,22.5,14c0,0,0.4,20.4-21.2,19.9c0,0-2.1,0.6-5.1,0.9
		C16,57.4,7.6,56.9,3.8,50.1z"/>
	<path class="st7" d="M16,57.4c0,0,4.6-5.5,6.7,11.3c0,0,6.3,7.2,5.1,11.1c0,0-6.5,18.3-8,19.1c-1.5,0.8,1.5-0.8,1.5-0.8
		S4.6,102.5,7,107.5c0,0,1.9,3.6,18.3,1.8l22.4-32.2c0,0,0.2-5.9,15.1-8.5c0,0-27.4,4.6-15.1,21.6c0,0,11,8.2,16.8,7.5
		c0,0-33.2,1-33.3,6.2c0,0-6.5,8.7,15.1,5.9l44.3-0.5c0,0,5.6,1.8,3.8-8c0,0-3.4-4.6-0.3-8.2c0.7-0.9,1.8-1.7,3.4-2.3
		c0,0,3.6-4.1,5-10.4c1.4-6.3,0.5-14.6-8.3-23.1c0,0-5.4-13.1-26-12.3s-1.7,0-1.7,0s-10,3.7-19-6.9"/>
	<path class="st8" d="M92.9,97c0,0,16.3,4.5,18.3-0.4s6.3-14.4-8.7-16.4"/>
	<path class="st7" d="M35,22.1c0,0,27-25.7,35.8-19c0,0,5.9,4.1-3.1,9L43.3,26.7c0,0,28-20.9,37.3-12.4c0,0,9.8,6-33.3,18.9"/>
	<path class="st9" d="M17.3,41.4c0,0,2.9-5.7,6.2,0C23.5,41.4,20.9,49.9,17.3,41.4z"/>
</g>
<g id="Layer_12" class="st0">
	<path class="st10" d="M174,22.1c-0.6,0.3-14.8,21-20.1,43.6c-2.9,12.6-3.1,25.8,3.5,36.3c0,0,6.2,10.4,45.7,8.8
		c0,0,34.5-3.9,32.7-29.8c0,0-10-58.4-32.7-62.8C203,18.1,192.2,11.9,174,22.1z"/>
	<path class="st10" d="M174,24.4c0,0-5.1-12.5-20.1,1.6c0,0-35.4,37.9,0,37.9"/>
	<path class="st10" d="M212.2,23.3c0,0,16.9-12.6,32.5,20.4c0,0,13,18.6-12.6,21.8"/>
	<path class="st10" d="M190.9,111V91.6c0,0-17.8-11.4-6.3-17.9c0,0,19.6-2.9,19.8,1.8c0,0,0.9,11.7-10.5,15.3v20.1"/>
	<path class="st11" d="M178.5,56.1c0,0-0.7-7,5.5-2.9C184.1,53.1,184.4,62.3,178.5,56.1z"/>
	<path class="st11" d="M201.5,56.6c0,0,1.7-7.5,7-2.9C208.4,53.6,210,62.3,201.5,56.6z"/>
</g>
<g id="Layer_13" class="st0">
	<path class="st4" d="M-268.1,250.9c0,0-8.4-7.5-3.7-7.1c4.7,0.4-6,3.2-8.8,0c-2.9-3.2-8.2-7.5-6.4-11.8c0,0-10.7,1.4-9.6-15.3
		c0,0-9.3-7.8-2.5-17.5c0,0-7.1-12.5,3.9-18.5c0,0-3.9-10,8.2-15c0,0,1.2-14.3,15.2-12.5c0,0,1.5-10.3,15.1-6.1c0,0,10.7-3.6,18.6-1
		c2.1,0.7,14.5-3.2,16,8.5c0,0,14.5-1.8,14.7,10.7c0,0,13.5,3.9,9.9,17.5c0,0,11.4,3.6,2.5,17.5c0,0,9.6,10.3-3.2,16.8
		c0,0,4.5,15.7-9.7,15.3c0,0,0.8,14.6-12.4,11.8c0,0-3.2,7.8-5.3,6.8l-1.2,14.3c0,0-5.4,6.4-11.2-1.8v-13.2c0,0-7.6,8.2-16.7-0.4
		v14.3c0,0-4.8,4.4-7.6,3.5c0,0-6.8-0.6-5.7-7v-9.8H-268.1z"/>
	<path class="st4" d="M-280.2,208.8c0,0,11.2-1.4,13.6-8.2c0,0,10.2,1.1,11.8-5c0,0,8.4,6.4,15.2,0c0,0,0.3,6.1,10.5,5
		c0,0,9.5,8.9,14.5,8.2c0,0,2.7,7.5-8.5,5c0,0-6.2-3.2-6.2-5s0,1.8,0,1.8s6.2,21.8-14,29.6c0,0-15.7,3.6-23.3-19.6v-11.4
		C-266.6,209-274.5,221.5-280.2,208.8z"/>
	<path class="st4" d="M-262,210.5c0,0,5,6.8,9.3,0"/>
	<path class="st4" d="M-243.2,210.5c0,0,7.1,7.1,9.2,0"/>
	<path class="st4" d="M-249.5,234.8c0,0,3.2-3.2,4.5,0C-243.8,238-247.4,237.3-249.5,234.8z"/>
</g>
<g id="Layer_14" class="st0">
	<path class="st4" d="M-59.2,202c-0.7,11.3,3.9,16.2,3.9,16.2c7.8,3.7,3.9,30.1,3.9,30.1h6.5l0.7-30.4l4.9-7.6
		c6.6-6.3,4.4-22.6,4.4-22.6C-34.2,177-47.6,172-47.6,172c-4.6-5.1-18.9,1.9-18.9,1.9c-11.6,2.5-28.6-4.6-28.6-4.6
		c-4.6-5.4-9.6-1.5-9.6-1.5c8.5-1.7,6.1-11.7,6.1-11.7c-0.6-1.4-10.4,6.1-10.4,6.1l2-2.4c-5.1-5.1-12.4,1.7-12.4,1.7l-14.9,16.1
		c0,0,0.7,7.3,8.7,7.3c0,0,10.5-4.6,13.4,1.4c0,0,9.2,16.3,10.2,27c0,0,0.2,7.3,11.2,7.1c0,0-8-10-5.6-11.7"/>
	<path class="st4" d="M-80.4,209.5c0,0-0.2,1.4-0.5,3.7c-0.2,1.3-0.3,2.8-0.5,4.6c-0.1,0.6-0.1,1.2-0.2,1.8
		c-1.3,10.9-2.9,27.1-2,28.8h-6.5c0,0,3.2-26.2-0.7-28"/>
	<path class="st4" d="M-59.2,203"/>
	<path class="st4" d="M-81.4,217.6c0,0,16.6-5.7,26.1,0.6"/>
	<path class="st4" d="M-101.8,177c0,0-8.8,10.9-15.8,6.1"/>
	<path class="st4" d="M-36.6,180.6c0,0,11.9,3,8.9,18.4l0.5,14.1c0,0-6.1,1-2.5,8.2l3.4,7.6c0,0,4.4-6.2,3.7-10.6
		c0,0,0.2-4.2-3.7-5.3"/>
	<path class="st1" d="M-119.2,171.4c0,0,1-3.6,3.4-0.8C-113.4,173.3-118.8,175.3-119.2,171.4z"/>
</g>
</svg>
